<svg width="50" height="50" viewBox="0 0 50 50" fill="none" xmlns="http://www.w3.org/2000/svg">
<circle cx="25" cy="25" r="25" fill="white"/>
<path d="M37.8736 23.3736H36.3598C36.2637 23.3736 36.1696 23.382 36.0755 23.3945C35.7953 21.9811 35.2391 20.6681 34.4655 19.5118C34.5408 19.4554 34.614 19.3947 34.683 19.3257L35.7535 18.2552C36.5836 17.4252 36.5836 16.0787 35.7535 15.2465C34.9234 14.4143 33.5769 14.4164 32.7448 15.2465L31.6743 16.317C31.6053 16.386 31.5446 16.4592 31.4882 16.5345C30.3319 15.7609 29.0189 15.2047 27.6055 14.9245C27.618 14.8304 27.6264 14.7363 27.6264 14.6402V13.1264C27.6264 11.9513 26.673 11 25.5 11C24.327 11 23.3736 11.9534 23.3736 13.1264V14.6402C23.3736 14.7363 23.382 14.8304 23.3945 14.9245C21.9811 15.2047 20.6681 15.7609 19.5118 16.5345C19.4554 16.4592 19.3947 16.386 19.3257 16.317L18.2552 15.2465C17.4252 14.4164 16.0787 14.4164 15.2465 15.2465C14.4143 16.0766 14.4164 17.4231 15.2465 18.2552L16.317 19.3257C16.386 19.3947 16.4592 19.4554 16.5345 19.5118C15.7608 20.6681 15.2047 21.9811 14.9245 23.3945C14.8304 23.382 14.7363 23.3736 14.6402 23.3736H13.1264C11.9513 23.3736 11 24.3249 11 25.5C11 26.6751 11.9534 27.6264 13.1264 27.6264H14.6402C14.7363 27.6264 14.8304 27.618 14.9245 27.6055C15.2047 29.0189 15.7608 30.3319 16.5345 31.4882C16.4592 31.5446 16.386 31.6053 16.317 31.6743L15.2465 32.7448C14.4164 33.5748 14.4164 34.9213 15.2465 35.7535C16.0766 36.5857 17.4231 36.5836 18.2552 35.7535L19.3257 34.683C19.3947 34.614 19.4554 34.5408 19.5118 34.4655C20.6681 35.2392 21.9811 35.7953 23.3945 36.0755C23.382 36.1696 23.3736 36.2637 23.3736 36.3598V37.8736C23.3736 39.0487 24.3249 40 25.5 40C26.6751 40 27.6264 39.0466 27.6264 37.8736V36.3598C27.6264 36.2637 27.618 36.1696 27.6055 36.0755C29.0189 35.7953 30.3319 35.2392 31.4882 34.4655C31.5446 34.5408 31.6053 34.614 31.6743 34.683L32.7448 35.7535C33.5748 36.5836 34.9213 36.5836 35.7535 35.7535C36.5856 34.9234 36.5836 33.5769 35.7535 32.7448L34.683 31.6743C34.614 31.6053 34.5408 31.5446 34.4655 31.4882C35.2391 30.3319 35.7953 29.0189 36.0755 27.6055C36.1696 27.618 36.2637 27.6264 36.3598 27.6264H37.8736C39.0487 27.6264 40 26.673 40 25.5C40 24.327 39.0487 23.3736 37.8736 23.3736ZM25.5 31.0303C22.4453 31.0303 19.9697 28.5547 19.9697 25.5C19.9697 22.4453 22.4453 19.9697 25.5 19.9697C28.5547 19.9697 31.0303 22.4453 31.0303 25.5C31.0303 28.5547 28.5547 31.0303 25.5 31.0303Z" fill="#FF7327"/>
</svg>
