<svg width="42" height="41" viewBox="0 0 42 41" fill="none" xmlns="http://www.w3.org/2000/svg">
<path d="M18.5584 2.49547C19.6678 0.247527 22.8733 0.247527 23.9828 2.49547L27.9742 10.583C28.4147 11.4757 29.2663 12.0944 30.2514 12.2375L39.1765 13.5344C41.6573 13.8949 42.6479 16.9435 40.8528 18.6933L34.3945 24.9885C33.6817 25.6834 33.3564 26.6845 33.5247 27.6656L35.0493 36.5547C35.473 39.0254 32.8797 40.9095 30.6609 39.743L22.678 35.5462C21.7969 35.083 20.7443 35.083 19.8632 35.5462L11.8803 39.743C9.66144 40.9095 7.06813 39.0254 7.4919 36.5547L9.01649 27.6656C9.18476 26.6845 8.85948 25.6834 8.14665 24.9885L1.68838 18.6933C-0.106709 16.9435 0.883846 13.8949 3.3646 13.5344L12.2897 12.2375C13.2748 12.0944 14.1264 11.4757 14.567 10.583L18.5584 2.49547Z" fill="#FFDF27"/>
</svg>
