<svg width="42" height="41" viewBox="0 0 42 41" fill="none" xmlns="http://www.w3.org/2000/svg">
<path d="M18.0662 2.49547C19.1756 0.247527 22.3811 0.247527 23.4906 2.49547L27.482 10.583C27.9226 11.4757 28.7741 12.0944 29.7593 12.2375L38.6844 13.5344C41.1651 13.8949 42.1557 16.9435 40.3606 18.6933L33.9023 24.9885C33.1895 25.6834 32.8642 26.6845 33.0325 27.6656L34.5571 36.5547C34.9808 39.0254 32.3875 40.9095 30.1687 39.743L22.1858 35.5462C21.3047 35.083 20.2521 35.083 19.371 35.5462L11.3881 39.743C9.16925 40.9095 6.57595 39.0254 6.99971 36.5547L8.5243 27.6656C8.69258 26.6845 8.3673 25.6834 7.65446 24.9885L1.1962 18.6933C-0.598896 16.9435 0.391658 13.8949 2.87242 13.5344L11.7975 12.2375C12.7826 12.0944 13.6342 11.4757 14.0748 10.583L18.0662 2.49547Z" fill="#D9D9D9"/>
</svg>
